<svg xmlns="http://www.w3.org/2000/svg" width="164" height="164" viewBox="0 0 164 164"><path fill="#e7bb22" d="M4.49 101.51l-.39-1.19a71.08 71.08 0 0 1-3.29-17.5 76.12 76.12 0 0 1 1.88-22.08A78.7 78.7 0 0 1 14.4 34.2c6.13-8.77 14.51-17.3 25.23-23.4A83.4 83.4 0 0 1 48 6.67a79.06 79.06 0 0 1 9.01-3.11A80.21 80.21 0 0 1 76.28.76a89.48 89.48 0 0 1 39.05 8.13c1.58.66 3.06 1.51 4.6 2.26 1.48.87 3 1.66 4.44 2.59a83.42 83.42 0 0 1 16.23 12.88c1.26 1.21 2.39 2.54 3.59 3.82 1.1 1.36 2.28 2.66 3.31 4.08a80.99 80.99 0 0 1 10.54 18.25 78.03 78.03 0 0 1 5.26 20.45c.15 1.75.39 3.5.42 5.25l.1 2.63-.02 2.63c.02 1.75-.14 3.49-.24 5.22-.03.88-.17 1.73-.26 2.6l-.14 1.29-.07.65-.02.16-.04.26-.05.3-.39 2.45-.2 1.22-.27 1.29-.56 2.59c-.2.85-.45 1.66-.66 2.49a86.22 86.22 0 0 1-3.28 9.69 81.06 81.06 0 0 1-9.82 17.33 80.38 80.38 0 0 1-13.15 13.81 81 81 0 0 1-30.73 15.82 78.18 78.18 0 0 1-28.87 2.12c-2.16-.2-4.16-.59-6.19-.91a84.88 84.88 0 0 1-5.6-1.33 73.32 73.32 0 0 1-24.96-12.12l-1.01-.76.45-.66 1.1.59a83.6 83.6 0 0 0 15.95 6.63 81.47 81.47 0 0 0 14.85 2.94c1.83.12 3.81.37 5.82.38 8.04.27 17.16-.71 26.5-3.74a77.49 77.49 0 0 0 27.29-15.39l1.59-1.38c.52-.47 1.01-.97 1.53-1.45 1.04-.96 2.01-2 2.99-3.04 1.01-1.02 1.9-2.15 2.87-3.22a82.3 82.3 0 0 0 11.75-18.85 77.44 77.44 0 0 0 3.17-8.64c.22-.74.47-1.49.65-2.23l.55-2.21.28-1.11.24-1.21.48-2.43.06-.3c-.02.14 0-.05 0-.05l.03-.15.08-.58.17-1.17c.1-.78.26-1.56.31-2.35.13-1.58.34-3.16.37-4.75l.11-2.39-.02-2.39c.03-1.61-.14-3.2-.2-4.81-1.05-12.79-5.05-25.73-12.34-36.87a73.4 73.4 0 0 0-12.98-15.11 71 71 0 0 0-16.64-10.85 66.58 66.58 0 0 0-18.72-5.7 69.98 69.98 0 0 0-19.04-.4 78.07 78.07 0 0 0-25.85 7.7 75.15 75.15 0 0 0-7.5 4.12c-9.56 5.95-17.49 13.31-23.26 21.3a80.21 80.21 0 0 0-12.1 23.98c-.34.96-.53 1.9-.8 2.83-.26.92-.5 1.84-.7 2.81L5.7 70.5c-.16.9-.35 1.78-.48 2.64a85.54 85.54 0 0 0-.14 26.94l.19 1.24z"/></svg>