<svg xmlns="http://www.w3.org/2000/svg" width="161" height="165" viewBox="0 0 161 165"><path fill="#e7bb22" d="M27.37 23.07l.88-.9a70.44 70.44 0 0 1 13.98-11.01 70.17 70.17 0 0 1 9.04-4.65A78.28 78.28 0 0 1 91.62.7c10.61 1.37 22.05 4.85 32.43 11.53a85.18 85.18 0 0 1 7.53 5.51 80.38 80.38 0 0 1 6.93 6.54 79.86 79.86 0 0 1 11.4 15.79 89.4 89.4 0 0 1 10.87 38.38c.14 1.7.08 3.41.13 5.12-.09 1.71-.08 3.43-.24 5.14a82.82 82.82 0 0 1-1.32 10.25 82.5 82.5 0 0 1-2.59 10.09c-.48 1.68-1.14 3.3-1.72 4.95-.69 1.6-1.3 3.25-2.09 4.82a82.98 82.98 0 0 1-5.04 9.26 86.45 86.45 0 0 1-6.25 8.54 77.98 77.98 0 0 1-15.69 14.12c-1.49.94-2.92 1.97-4.46 2.81l-2.29 1.31-2.33 1.19c-1.55.83-3.16 1.49-4.75 2.21-.79.37-1.61.65-2.42.97l-1.21.47-.61.24-.15.06-.24.09-.3.09-2.35.78-1.17.39-1.27.36-2.55.7c-.85.22-1.68.38-2.52.57a85.75 85.75 0 0 1-10.1 1.58 81 81 0 0 1-19.91-.68 80.78 80.78 0 0 1-46.58-25.18 78.11 78.11 0 0 1-15.24-24.61c-.83-2-1.41-3.96-2.06-5.91A79.86 79.86 0 0 1 .53 92.59a71.8 71.8 0 0 1 .9-18.96l.8.08-.02 1.25a83.11 83.11 0 0 0 1.51 17.21 82.57 82.57 0 0 0 4.27 14.53c.74 1.67 1.44 3.54 2.36 5.33a77.45 77.45 0 0 0 15.58 21.75 77.62 77.62 0 0 0 26.28 17.08l1.95.76c.66.25 1.33.45 2 .68 1.33.48 2.7.86 4.08 1.25 1.37.42 2.78.69 4.18 1.05a82.66 82.66 0 0 0 22.15 1.69c3.03-.25 6.1-.57 9.13-1.19.76-.15 1.54-.27 2.27-.45l2.22-.53 1.11-.27 1.18-.35 2.38-.7.3-.09c-.14.05.04-.01.04-.02l.14-.05.56-.19 1.11-.39c.74-.28 1.51-.5 2.23-.81 1.46-.62 2.96-1.16 4.38-1.87l2.17-1.02 2.11-1.12c1.43-.72 2.77-1.6 4.17-2.4 10.85-6.86 20.47-16.39 26.97-28.01a73.38 73.38 0 0 0 7.38-18.5 70.98 70.98 0 0 0 1.92-19.77 66.42 66.42 0 0 0-3.62-19.23 69.65 69.65 0 0 0-8.46-17.06 79.04 79.04 0 0 0-18.79-19.36 75.2 75.2 0 0 0-7.12-4.74c-9.7-5.72-19.9-9.34-29.65-10.75a80.1 80.1 0 0 0-26.85.37c-1.01.15-1.94.41-2.89.6-.93.2-1.86.41-2.82.68l-2.72.72c-.87.27-1.74.51-2.57.8a86.59 86.59 0 0 0-23.94 12.34l-1.01.75z"/></svg>