<svg xmlns="http://www.w3.org/2000/svg" width="166" height="162" viewBox="0 0 166 162"><path fill="#e7bb22" d="M145.3 31.26a90.18 90.18 0 0 0 3.28 3.72 71.31 71.31 0 0 1 7.8 11.77 71.61 71.61 0 0 1 4.14 9.29 78.43 78.43 0 0 1 3.56 40.61c-1.95 10.52-6.05 21.75-13.3 31.74a84.15 84.15 0 0 1-5.92 7.21 78.48 78.48 0 0 1-6.91 6.56 80.04 80.04 0 0 1-16.4 10.51 89.52 89.52 0 0 1-38.92 8.73c-1.7.05-3.4-.11-5.12-.16-1.7-.17-3.42-.26-5.12-.52a84.45 84.45 0 0 1-20.1-5.02c-1.64-.58-3.22-1.33-4.84-2-1.56-.78-3.18-1.48-4.7-2.35a80.88 80.88 0 0 1-17.14-12.26 77.8 77.8 0 0 1-13.24-16.45c-.86-1.53-1.8-3.02-2.55-4.61l-1.18-2.35-1.07-2.4c-.74-1.59-1.3-3.24-1.94-4.86-.33-.81-.56-1.65-.84-2.47l-.4-1.24-.2-.62-.05-.15-.08-.25-.08-.3-.65-2.39-.32-1.19-.28-1.29-.56-2.59c-.18-.86-.29-1.69-.43-2.54A86.27 86.27 0 0 1 .72 83.22c-.24-6.77.4-13.46 1.78-19.84a80.83 80.83 0 0 1 27.72-45.12A78.24 78.24 0 0 1 55.63 4.4c2.05-.71 4.03-1.18 6.02-1.73 1.86-.41 3.82-.83 5.64-1.11C70.94.97 74.32.67 77.37.61a71.83 71.83 0 0 1 17.66 1.68l1.23.28-.13.79-1.25-.09a82.37 82.37 0 0 0-26.74 2.44c-1.71.43-3.37.96-5.26 1.57-1.72.65-3.62 1.25-5.45 2.06a77.7 77.7 0 0 0-22.6 14.36 77.46 77.46 0 0 0-18.5 25.29l-.86 1.91c-.28.64-.53 1.3-.8 1.96-.55 1.3-1 2.65-1.46 4-.5 1.34-.85 2.74-1.29 4.12A82.39 82.39 0 0 0 9.01 83c.09 3.04.23 6.11.68 9.18.11.76.2 1.55.33 2.29l.41 2.24.2 1.13.29 1.2.57 2.41.07.3a.75.75 0 0 1 .01.05l.04.14.17.57.33 1.13c.23.76.41 1.53.68 2.27.53 1.49 1 3.02 1.63 4.48l.9 2.22 1 2.17c.63 1.47 1.44 2.86 2.16 4.3 6.25 11.21 15.23 21.34 26.48 28.47a73.4 73.4 0 0 0 18.06 8.4 71 71 0 0 0 19.64 3c6.6.08 13.19-.73 19.4-2.54a69.92 69.92 0 0 0 17.5-7.51 77.95 77.95 0 0 0 20.36-17.68 76 76 0 0 0 5.13-6.86c6.25-9.36 10.43-19.35 12.38-29a80.29 80.29 0 0 0 1.11-26.84c-.09-1.01-.3-1.95-.44-2.91-.14-.94-.3-1.88-.52-2.85L157 60c-.22-.88-.41-1.76-.65-2.61a86.52 86.52 0 0 0-11-24.58l-.69-1.06z"/></svg>