<svg xmlns="http://www.w3.org/2000/svg" width="161" height="166" viewBox="0 0 161 166"><path fill="#e7bb22" d="M142 134.12l-.73 1.02a70.72 70.72 0 0 1-12.15 13.01 76.26 76.26 0 0 1-18.91 11.55 78.43 78.43 0 0 1-28.32 6.26c-10.7.26-22.54-1.44-33.8-6.48a83.66 83.66 0 0 1-8.28-4.3 79.04 79.04 0 0 1-7.84-5.42 79.82 79.82 0 0 1-13.66-13.88A89.36 89.36 0 0 1 1.75 99.59c-.4-1.66-.6-3.36-.9-5.04-.18-1.7-.45-3.4-.54-5.12A81.93 81.93 0 0 1 .05 79.1c.18-3.46.42-6.94 1.03-10.37.23-1.73.64-3.43.96-5.15.44-1.69.8-3.41 1.33-5.08a81.48 81.48 0 0 1 3.59-9.91 82.73 82.73 0 0 1 4.88-9.39A77.69 77.69 0 0 1 25.2 22.86c1.32-1.16 2.59-2.39 3.98-3.45l2.06-1.64 2.13-1.53c1.4-1.06 2.9-1.95 4.35-2.91.73-.48 1.5-.88 2.25-1.33l1.13-.65.56-.32.14-.08.23-.12.28-.14 2.2-1.13 1.1-.56 1.2-.55 2.42-1.08c.8-.35 1.6-.63 2.4-.94A80.81 80.81 0 0 1 81.17.99a80.86 80.86 0 0 1 49.86 17.84 78.15 78.15 0 0 1 18.8 22.01c1.12 1.86 2 3.7 2.93 5.53.8 1.74 1.6 3.58 2.25 5.3a72.08 72.08 0 0 1 3.01 9.66 72.53 72.53 0 0 1 2 17.63l-.02 1.26-.8.04-.17-1.24a82.89 82.89 0 0 0-7.9-25.67 83.64 83.64 0 0 0-2.63-4.83c-.98-1.54-1.96-3.28-3.13-4.9a77.43 77.43 0 0 0-18.7-19.15 77.46 77.46 0 0 0-28.56-12.9l-2.05-.46c-.68-.14-1.38-.24-2.08-.37-1.39-.27-2.8-.44-4.22-.61-1.41-.21-2.85-.27-4.3-.41A82.67 82.67 0 0 0 63.3 11.4a78.56 78.56 0 0 0-8.83 2.56c-.73.27-1.48.51-2.18.8l-2.1.86-1.07.43-1.12.52-2.24 1.06-.28.13c.13-.07-.04.02-.04.03l-.13.06-.52.28-1.05.56c-.69.38-1.4.72-2.08 1.14-1.34.82-2.74 1.59-4.04 2.51l-1.99 1.33-1.92 1.43c-1.3.93-2.5 2-3.76 3-9.68 8.42-17.75 19.3-22.4 31.77a73.54 73.54 0 0 0-4.5 19.41 71.22 71.22 0 0 0 1.1 19.84 66.74 66.74 0 0 0 6.48 18.46c3 5.75 6.68 11.01 10.95 15.58a78.01 78.01 0 0 0 21.5 16.28 77 77 0 0 0 7.77 3.61c10.45 4.18 21.08 6.22 30.93 6.14a80.44 80.44 0 0 0 26.49-4.44c.97-.3 1.84-.7 2.75-1.03.9-.34 1.78-.69 2.69-1.1l2.58-1.12c.82-.4 1.64-.77 2.42-1.18a86.6 86.6 0 0 0 21.8-15.82l.88-.9z"/></svg>