<svg xmlns="http://www.w3.org/2000/svg" width="49" height="55" viewBox="0 0 49 55"><path fill="#222" d="M45.69 0H13.8a3.33 3.33 0 0 0-3.31 3.33v7.47a14.6 14.6 0 1 0 0 28.03v12.83A3.33 3.33 0 0 0 13.8 55h26.06c.31 0 .6-.12.83-.34l7.97-8.04c.22-.22.34-.52.34-.83V3.33A3.33 3.33 0 0 0 45.69 0zM13.8 2.35h31.89c.54 0 .98.44.98.98v3.55H12.82V3.33c0-.54.44-.98.98-.98zM2.33 24.81c0-6.74 5.44-12.22 12.14-12.22 6.69 0 12.13 5.48 12.13 12.22a12.2 12.2 0 0 1-12.13 12.23A12.2 12.2 0 0 1 2.33 24.81zm10.5 26.85V39.29a14.4 14.4 0 0 0 12.55-4.91h7.13a1.17 1.17 0 0 0 0-2.35h-5.48a14.5 14.5 0 0 0 1.85-5.96h3.63c.64 0 1.17-.52 1.17-1.17 0-.65-.53-1.17-1.17-1.17h-3.62a14.57 14.57 0 0 0-1.76-5.96h5.38a1.17 1.17 0 1 0 0-2.35h-7a14.39 14.39 0 0 0-12.69-5.09v-1.1h33.85v35.39H42a3.32 3.32 0 0 0-3.3 3.33v4.7H13.8a.98.98 0 0 1-.98-.99zm28.2-.67v-3.04c0-.54.43-.98.97-.98h3.02zm-3.94-33.22h3.87a1.17 1.17 0 1 0 0-2.35H37.1a1.17 1.17 0 0 0 0 2.35zm0 8.3h3.87c.65 0 1.17-.52 1.17-1.17 0-.65-.52-1.17-1.17-1.17H37.1c-.64 0-1.17.52-1.17 1.17 0 .65.53 1.17 1.17 1.17zm0 8.31h3.87a1.17 1.17 0 0 0 0-2.35H37.1a1.17 1.17 0 1 0 0 2.35zm3.87 8.3a1.17 1.17 0 1 0 0-2.35h-10.9a1.17 1.17 0 0 0 0 2.35zM23.52 18.89l-1.43-1.44c-.38-.38-.89-.6-1.43-.6-.54 0-1.05.22-1.43.6l-7.46 7.52-2.07-2.08c-.38-.38-.89-.6-1.43-.6-.54 0-1.05.22-1.43.6L5.4 24.32c-.79.8-.79 2.1 0 2.89l4.92 4.96a2.03 2.03 0 0 0 2.87 0l10.32-10.4c.79-.79.79-2.09 0-2.88zm-11.75 11.4l-4.5-4.52 1-1 2.67 2.69c.46.46 1.2.46 1.65 0l8.07-8.13 1 1z"/></svg>