<svg xmlns="http://www.w3.org/2000/svg" width="45" height="61" viewBox="0 0 45 61"><path fill="#222" d="M44.73 22.14l-3.2-4.16.69-5.18a1.31 1.31 0 0 0-.8-1.39l-4.85-2-2-4.83c-.24-.56-.8-.89-1.4-.81l-5.2.68-4.17-3.18a1.34 1.34 0 0 0-1.6 0l-4.17 3.18-5.2-.68c-.6-.08-1.17.25-1.4.81l-2 4.83-4.85 2c-.55.22-.88.8-.8 1.39l.68 5.18-3.19 4.16a1.3 1.3 0 0 0 0 1.6l3.19 4.16-.68 5.18c-.08.59.25 1.17.8 1.39l4.85 2 2 4.83c.18.43.56.73 1 .8v17.57c0 .49.27.93.7 1.16.42.24.93.22 1.34-.04L23 55.4l8.52 5.39a1.3 1.3 0 0 0 1.35.04c.43-.23.7-.67.7-1.16V42.1c.43-.07.82-.37 1-.8l2-4.83 4.84-2c.56-.22.89-.8.81-1.39l-.68-5.18 3.18-4.16a1.3 1.3 0 0 0 0-1.6zM23.7 52.71a1.35 1.35 0 0 0-1.42 0l-7.2 4.56V41.82l2.94-.39 4.16 3.18a1.33 1.33 0 0 0 1.62 0l4.16-3.18 2.94.39v15.45zM39.1 26.72c-.21.28-.3.63-.26.98l.62 4.72-4.41 1.82a1.3 1.3 0 0 0-.72.72l-1.83 4.39-4.73-.61c-.35-.05-.7.05-.98.26l-3.8 2.89L19.22 39a1.31 1.31 0 0 0-.8-.27l-.18.01-4.73.61-1.83-4.39a1.3 1.3 0 0 0-.72-.72l-4.41-1.82.62-4.72c.05-.35-.05-.7-.26-.98L4 22.94l2.9-3.78c.21-.28.3-.63.26-.98l-.62-4.72 4.41-1.82c.33-.13.58-.39.72-.72l1.83-4.39 4.73.61c.35.05.7-.05.98-.26L23 3.99l3.79 2.89c.28.21.63.31.98.26l4.73-.61 1.83 4.39c.13.33.39.59.72.72l4.4 1.82-.61 4.72c-.05.35.05.7.26.98l2.9 3.78zM14.9 14.4c.3 0 .59-.09.84-.3A11.5 11.5 0 0 1 23 11.51a1.32 1.32 0 1 0 0-2.64c-3.26 0-6.43 1.13-8.95 3.19a1.32 1.32 0 0 0 .84 2.34zm12.83-4.72a1.32 1.32 0 1 0-.9 2.49 11.46 11.46 0 0 1 7.62 10.77 11.46 11.46 0 0 1-22.9 0c0-2.24.64-4.41 1.87-6.27.4-.61.24-1.43-.38-1.84a1.33 1.33 0 0 0-1.83.38 14 14 0 0 0-2.32 7.73 14.1 14.1 0 0 0 28.22 0 14.1 14.1 0 0 0-9.38-13.26z"/></svg>