<svg xmlns="http://www.w3.org/2000/svg" width="54" height="73" viewBox="0 0 54 73"><path fill="#e7bb22" d="M52.67 26.34l-3.76-4.98.8-6.23a1.6 1.6 0 0 0-.95-1.67l-5.73-2.4-2.37-5.8A1.58 1.58 0 0 0 39 4.29l-6.14.82-4.92-3.82a1.58 1.58 0 0 0-1.91 0l-4.92 3.82-6.15-.82c-.7-.09-1.38.31-1.65.97l-2.38 5.8-5.72 2.4c-.66.27-1.05.96-.96 1.67l.81 6.23-3.77 4.98a1.6 1.6 0 0 0 0 1.93l3.77 4.99-.81 6.22c-.09.71.3 1.4.96 1.67l5.72 2.41 2.38 5.8c.21.51.66.86 1.18.95v21.1c0 .58.31 1.11.81 1.39.5.28 1.12.26 1.6-.05l10.08-6.47 10.08 6.47a1.52 1.52 0 0 0 1.6.05c.5-.28.81-.81.81-1.39v-21.1c.52-.09.98-.44 1.19-.95l2.37-5.8 5.73-2.4c.65-.28 1.04-.97.95-1.68l-.8-6.22 3.77-4.99c.43-.57.43-1.36-.01-1.93zM27.82 63.05a1.55 1.55 0 0 0-1.68 0l-8.51 5.47V49.97l3.48-.46 4.92 3.81a1.55 1.55 0 0 0 1.91 0l4.92-3.81 3.48.46v18.55zm18.2-31.2c-.25.33-.36.75-.31 1.17l.73 5.67-5.21 2.18c-.39.16-.69.47-.85.86l-2.16 5.28-5.6-.74c-.41-.05-.83.06-1.16.32l-4.48 3.47-4.48-3.47a1.53 1.53 0 0 0-.96-.33l-.2.01-5.6.74-2.16-5.28c-.16-.39-.46-.7-.85-.86l-5.21-2.18.73-5.67c.05-.42-.06-.84-.31-1.17l-3.43-4.54 3.43-4.54c.25-.34.36-.76.31-1.17l-.73-5.67 5.21-2.19c.39-.16.7-.47.85-.86l2.16-5.28 5.6.74c.41.06.83-.06 1.16-.31l4.48-3.48 4.48 3.48c.33.25.75.37 1.16.31l5.6-.74 2.16 5.28c.16.39.46.7.85.86l5.21 2.19-.73 5.67c-.05.41.06.83.31 1.17l3.43 4.54zM17.4 17.06c.35 0 .7-.12.99-.36a13.47 13.47 0 0 1 8.59-3.11c.87 0 1.57-.71 1.57-1.59 0-.88-.7-1.59-1.57-1.59-3.85 0-7.61 1.36-10.58 3.83a1.6 1.6 0 0 0-.21 2.24c.31.38.76.58 1.21.58zm15.18-5.67c-.82-.3-1.72.14-2.01.96a1.6 1.6 0 0 0 .95 2.03 13.74 13.74 0 0 1 9.01 12.93c0 7.56-6.08 13.71-13.55 13.71a13.65 13.65 0 0 1-13.55-13.71c0-2.69.77-5.3 2.23-7.53a1.6 1.6 0 0 0-.45-2.2 1.55 1.55 0 0 0-2.17.45 16.91 16.91 0 0 0-2.74 9.28A16.8 16.8 0 0 0 26.98 44.2c9.2 0 16.69-7.58 16.69-16.89 0-7.13-4.46-13.53-11.09-15.92z"/></svg>