<svg xmlns="http://www.w3.org/2000/svg" width="45" height="45" viewBox="0 0 45 45"><path fill="#222" d="M17.86 21.77H3.57A3.6 3.6 0 0 1 0 18.15V3.63C0 1.63 1.6 0 3.57 0h14.29a3.6 3.6 0 0 1 3.57 3.63v14.52c0 2-1.6 3.62-3.57 3.62zM3.57 1.45c-1.18 0-2.14.98-2.14 2.18v14.52c0 1.2.96 2.17 2.14 2.17h14.29c1.18 0 2.14-.97 2.14-2.17V3.63c0-1.2-.96-2.18-2.14-2.18zm13.57 9.44h-5.71v5.8c0 .4-.32.73-.72.73a.72.72 0 0 1-.71-.73v-5.8H5a.72.72 0 0 1-.71-.73c0-.4.31-.73.71-.73h5V4.35a.72.72 0 1 1 1.43 0v5.08h5.71c.4 0 .72.33.72.73 0 .4-.32.73-.72.73zm24.29 10.88H27.14a3.6 3.6 0 0 1-3.57-3.62V3.63c0-2 1.6-3.63 3.57-3.63h14.29A3.6 3.6 0 0 1 45 3.63v14.52c0 2-1.6 3.62-3.57 3.62zM27.14 1.45c-1.18 0-2.14.98-2.14 2.18v14.52c0 1.2.96 2.17 2.14 2.17h14.29c1.18 0 2.14-.97 2.14-2.17V3.63c0-1.2-.96-2.18-2.14-2.18zm11.77 13.98a.7.7 0 0 1-.5-.21l-4.05-4.1-4.04 4.1a.71.71 0 0 1-1 0 .74.74 0 0 1 0-1.03l4.03-4.1-3.53-3.59a.74.74 0 0 1 0-1.03.71.71 0 0 1 1 0l3.54 3.6 3.54-3.6a.71.71 0 0 1 1 0c.29.28.29.74 0 1.03l-3.53 3.59 4.04 4.1c.28.29.28.75 0 1.03a.7.7 0 0 1-.5.21zM17.86 45H3.57A3.6 3.6 0 0 1 0 41.37V26.85c0-2 1.6-3.62 3.57-3.62h14.29a3.6 3.6 0 0 1 3.57 3.62v14.52c0 2-1.6 3.63-3.57 3.63zM3.57 24.68c-1.18 0-2.14.97-2.14 2.17v14.52c0 1.2.96 2.18 2.14 2.18h14.29c1.18 0 2.14-.98 2.14-2.18V26.85c0-1.2-.96-2.17-2.14-2.17zm13.57 7.98H5a.72.72 0 0 1-.71-.72c0-.41.31-.73.71-.73h12.14c.4 0 .72.32.72.73 0 .4-.32.72-.72.72zM40 34.84H27.86a.72.72 0 0 1-.72-.73c0-.4.32-.72.72-.72H40c.4 0 .71.32.71.72 0 .4-.31.73-.71.73zm-22.86 2.9H5a.72.72 0 0 1-.71-.72c0-.41.31-.73.71-.73h12.14c.4 0 .72.32.72.73 0 .4-.32.72-.72.72zM41.43 45H27.14a3.6 3.6 0 0 1-3.57-3.63V26.85c0-2 1.6-3.62 3.57-3.62h14.29A3.6 3.6 0 0 1 45 26.85v14.52c0 2-1.6 3.63-3.57 3.63zM27.14 24.68c-1.18 0-2.14.97-2.14 2.17v14.52c0 1.2.96 2.18 2.14 2.18h14.29c1.18 0 2.14-.98 2.14-2.18V26.85c0-1.2-.96-2.17-2.14-2.17z"/></svg>