<svg xmlns="http://www.w3.org/2000/svg" width="57" height="56" viewBox="0 0 57 56"><path fill="#222" d="M38.84 30.1a2.89 2.89 0 0 0-2.62-.79l-12.84-12.7 2.49-2.46a1 1 0 0 0 0-1.43l-.63-.62 9.45-9.34a1 1 0 0 0 .23-1.06 1.02 1.02 0 0 0-.89-.66A19.3 19.3 0 0 0 19.4 6.33l-.63-.62a1.02 1.02 0 0 0-1.45 0L7.18 15.73a1 1 0 0 0 0 1.43l.98.96-1.79 1.77-.98-.96c-.39-.4-1.04-.4-1.44 0L.3 22.53a1 1 0 0 0 0 1.43l7.1 7.02a1.05 1.05 0 0 0 1.44 0l3.65-3.61c.19-.19.3-.45.3-.72 0-.26-.11-.52-.3-.71l-.97-.96 1.78-1.77.98.96a1.02 1.02 0 0 0 1.45 0l2.49-2.46 12.84 12.7c-.18.91.09 1.89.8 2.59L47.1 52.05c.55.55 1.28.85 2.06.85s1.51-.3 2.06-.85l2.86-2.82a2.86 2.86 0 0 0 0-4.08zM31.5 3.06l-7.71 7.61-2.95-2.91a17.18 17.18 0 0 1 10.66-4.7zM8.12 28.84l-5.65-5.59 2.2-2.18 5.66 5.58zm1.95-5.29l-2.26-2.23 1.79-1.77 2.26 2.23zM15 22.03l-5.65-5.59 8.7-8.59 5.65 5.59zm6.93-3.99l12.5 12.34-2.28 2.25-12.49-12.34zm30.7 29.77l-2.85 2.82a.9.9 0 0 1-.62.25.9.9 0 0 1-.62-.25L33.31 35.57a.85.85 0 0 1 0-1.23l2.85-2.82a.9.9 0 0 1 .62-.25.9.9 0 0 1 .62.25l15.23 15.06c.35.34.35.89 0 1.23zm-18.8-24.08a.99.99 0 0 0 0 1.42c.4.4 1.05.4 1.45 0L37.46 23a11.6 11.6 0 0 0 3.45-9.54 6.45 6.45 0 0 1 3.72-6.58l-.84 2.65a4.32 4.32 0 0 0 2.87 5.41c2.3.71 4.76-.56 5.47-2.84L53 9.36a6.35 6.35 0 0 1-.96 7.95 6.44 6.44 0 0 1-2.61 1.58c-1.85.59-3.53 1.6-4.87 2.92l-5.34 5.27c-.39.4-.39 1.04 0 1.43.2.2.47.3.73.3s.52-.1.72-.3L46 23.24a10.13 10.13 0 0 1 4.05-2.43 8.6 8.6 0 0 0 3.44-2.07 8.4 8.4 0 0 0-.2-12.2c-.26-.24-.62-.33-.96-.24-.34.09-.61.35-.72.68l-1.43 4.52a2.33 2.33 0 0 1-2.91 1.51 2.32 2.32 0 0 1-1.37-1.12 2.34 2.34 0 0 1-.16-1.76l1.42-4.47a1 1 0 0 0-.21-.96 1.02 1.02 0 0 0-.93-.34 8.65 8.65 0 0 0-4.27 1.99 8.43 8.43 0 0 0-2.87 7.33 9.58 9.58 0 0 1-2.87 7.89zm-5 13.62a11.56 11.56 0 0 0-3.44 9.54 6.5 6.5 0 0 1-3.73 6.58l.84-2.65a4.32 4.32 0 0 0-2.87-5.41 4.38 4.38 0 0 0-5.47 2.84l-.87 2.74a6.35 6.35 0 0 1 .96-7.95 6.44 6.44 0 0 1 2.61-1.58c1.85-.59 3.53-1.6 4.87-2.92l5.42-5.36a.99.99 0 0 0 0-1.42c-.4-.4-1.04-.4-1.44 0l-5.42 5.35a10.13 10.13 0 0 1-4.05 2.43 8.6 8.6 0 0 0-3.44 2.07 8.4 8.4 0 0 0 .2 12.2c.26.24.62.33.96.24.34-.09.61-.35.72-.68l1.43-4.52c.18-.59.59-1.07 1.14-1.35a2.28 2.28 0 0 1 1.77-.16c.59.18 1.08.58 1.37 1.12.28.55.34 1.17.16 1.76l-1.42 4.47a1.02 1.02 0 0 0 .98 1.31l.16-.01A8.6 8.6 0 0 0 24.54 54a8.46 8.46 0 0 0 2.88-7.33 9.54 9.54 0 0 1 2.86-7.89 1 1 0 0 0 0-1.43 1.04 1.04 0 0 0-1.45 0z"/></svg>