<svg xmlns="http://www.w3.org/2000/svg" width="57" height="56" viewBox="0 0 57 56"><path fill="#222" d="M55.7 9.54l-2.5-2.49a4.07 4.07 0 0 0-5.87 0l-7.54 7.47L27.23 0H4.19A4.18 4.18 0 0 0 0 4.15v47.7A4.18 4.18 0 0 0 4.19 56H35.6c2.3 0 4.2-1.87 4.2-4.15V31.11l15.9-15.76a3.99 3.99 0 0 0 0-5.81zM27.24 3.11l9.84 11.41h-7.75c-1.05 0-2.1-1.04-2.1-2.08zM37.7 51.85a2.1 2.1 0 0 1-2.1 2.08H4.2c-1.05 0-2.1-.83-2.1-2.08V4.15a2.1 2.1 0 0 1 2.1-2.08h20.94v10.37a4.18 4.18 0 0 0 4.19 4.15h8.38L16.75 37.33 14.66 47.7l10.47-2.07L37.7 33.18zM18.64 38.58l5.23 5.18-6.49 1.25zm6.91 3.73l-5.45-5.39 23.46-23.23 5.45 5.39zm28.7-28.41l-3.57 3.52-5.44-5.39L48.8 8.5c.83-.83 2.1-.83 2.93 0l2.51 2.49a2 2 0 0 1 0 2.91z"/></svg>