<svg xmlns="http://www.w3.org/2000/svg" width="51" height="45" viewBox="0 0 51 45"><path fill="#222" d="M0 44.82h11.95V.18H0zm1.83-4.29h2.54v-.69H1.83v-1.76h2.54v-.69H1.83v-1.57h2.54v-.7H1.83v-1.56h5.25v-1.11H1.83v-1.9h2.54v-.7H1.83v-1.76h2.54v-.69H1.83v-1.57h2.54v-.69H1.83v-1.57h5.25v-1.11H1.83v-2.24h2.54v-.7H1.83v-1.76h2.54v-.69H1.83V15.5h2.54v-.7H1.83v-1.55h5.25v-1.12H1.83v-1.72h3.23v-.7H1.83V7.96h3.23v-.7H1.83V5.69h3.23V5H1.83V2.09h8.29v40.83H1.83zM15.22.02v44.97h35.77zm1.82 41.89h2.55v-.68h-2.55v-1.72h2.55v-.68h-2.55v-1.54h2.55v-.68h-2.55v-1.52h5.25V34h-5.25v-1.85h2.55v-.68h-2.55v-1.72h2.55v-.68h-2.55v-1.54h2.55v-.68h-2.55v-1.52h5.25v-1.09h-5.25v-2.2h2.55v-.68h-2.55v-1.72h2.55v-.67h-2.55v-1.54h2.55v-.68h-2.55v-1.52h5.25v-1.09h-5.25v-1.68h3.24v-.68h-3.24v-1.72h3.24v-.68h-3.24V5.27l30.12 37.86H17.04zm6.37-19.75v15.45H35.7zm1.83 5.25l6.62 8.33h-6.62z"/></svg>