<svg xmlns="http://www.w3.org/2000/svg" width="41" height="53" viewBox="0 0 41 53"><path fill="#222" d="M20.5 0C9.2 0 0 8.91 0 19.86c0 4.14 1.3 8.1 3.76 11.46a20.33 20.33 0 0 0 9.13 6.99l.87 11.37h3.54l.86 3.32h4.68l.86-3.32h3.54l.87-11.37a20.33 20.33 0 0 0 9.13-6.99A19.27 19.27 0 0 0 41 19.86C41 8.91 31.8 0 20.5 0zm-1.96 38.17l-4.73-16.38.37.31a3.41 3.41 0 0 0 2.46 1.03c1.27 0 1.93-.57 2.46-1.03.45-.38.74-.63 1.4-.63.65 0 .95.25 1.39.63a3.41 3.41 0 0 0 2.46 1.03c1.27 0 1.93-.57 2.46-1.03l.38-.31-4.73 16.38zm7.85 1.55l-.13 1.77H14.74l-.14-1.77zm-11.53 3.32h11.28L26 44.81H15zm6.73 8.4h-2.18l-.45-1.76h3.08zm-6.34-3.32l-.14-1.76h10.77l-.13 1.76zm20.68-17.69a18.8 18.8 0 0 1-8.86 6.6l-.48.17-.08.97h-2.38l5.71-19.76-1.55-.42-.56 1.95c-.97.13-1.52.6-1.98 1-.45.38-.74.63-1.4.63-.66 0-.95-.25-1.39-.63a3.43 3.43 0 0 0-4.92 0c-.45.38-.74.63-1.4.63-.65 0-.95-.25-1.39-.63a3.53 3.53 0 0 0-1.98-1l-.56-1.95-1.55.42 5.71 19.76h-2.38l-.08-.97-.48-.17a18.8 18.8 0 0 1-8.86-6.6 17.78 17.78 0 0 1-3.46-10.57c0-10.09 8.47-18.3 18.89-18.3s18.89 8.21 18.89 18.3c0 3.81-1.19 7.47-3.46 10.57zM24.57 5.4c.84.22 1.66.51 2.44.86l.68-1.41c-.87-.39-1.77-.71-2.69-.95zm5.14.53l-.87 1.31a15.11 15.11 0 0 1 6.79 9.47l1.57-.33a16.7 16.7 0 0 0-7.49-10.45z"/></svg>